# xmcd
#
# Track frame offsets:
#	150
#	18111
#	35402
#	54222
#	70207
#	88703
#	106539
#	121099
#	138561
#	160294
#
# Disc length: 2386 seconds
#
# Revision: 3
# Processed by: cddbd v1.5.2PL0 Copyright (c) Steve Scherf et al.
# Submitted via: EasyCDDAExtractor 12.0.4.1
#
DISCID=7309500a
DTITLE=SCRUBB - KID
DYEAR=2010
DGENRE=Pop
TTITLE0=คำตอบ
TTITLE1=พร้อม
TTITLE2=รอยต่อ
TTITLE3=สุขใจ (KID EDITED)
TTITLE4=วันเหล่านั้น
TTITLE5=หนี
TTITLE6=ฉันก็เป็นเหมือนใครคนหนึ่ง
TTITLE7=คนนี้
TTITLE8=ลมเบาเบา
TTITLE9=คิด
EXTD=
EXTT0=
EXTT1=
EXTT2=
EXTT3=
EXTT4=
EXTT5=
EXTT6=
EXTT7=
EXTT8=
EXTT9=
PLAYORDER=
